<?xml version="1.0" standalone="no"?>
<!DOCTYPE svg PUBLIC "-//W3C//DTD SVG 20010904//EN"
 "http://www.w3.org/TR/2001/REC-SVG-20010904/DTD/svg10.dtd">
<svg version="1.0" xmlns="http://www.w3.org/2000/svg"
 width="160.000000pt" height="160.000000pt" viewBox="0 0 160.000000 160.000000"
 preserveAspectRatio="xMidYMid meet">
<metadata>
Created by potrace 1.11, written by Peter Selinger 2001-2013
</metadata>
<g transform="translate(0.000000,160.000000) scale(0.100000,-0.100000)"
fill="#000000" stroke="none">
<path d="M656 1499 c-10 -6 -37 -12 -60 -13 -97 -4 -242 -110 -266 -195 -12
-45 -13 -111 -1 -111 5 0 8 -19 7 -42 -1 -24 3 -55 10 -69 7 -14 15 -43 18
-65 5 -44 24 -103 39 -121 5 -7 7 -19 4 -28 -7 -17 12 -77 27 -87 6 -4 9 -21
8 -38 -2 -18 5 -44 17 -64 11 -18 18 -36 14 -39 -10 -10 46 -76 85 -101 20
-12 49 -26 64 -29 31 -8 48 -48 48 -114 0 -37 6 -50 41 -88 28 -31 37 -46 28
-49 -50 -15 -49 -13 -49 -80 l0 -65 78 -3 c42 -2 119 -2 170 0 l93 3 -3 67
c-3 65 -3 66 -35 74 -27 7 -33 13 -33 36 0 15 9 35 20 45 25 21 26 75 4 159
-18 71 -15 82 27 104 45 23 56 35 84 96 28 59 31 94 11 121 -11 14 -11 24 -3
47 10 25 8 34 -11 59 -16 22 -20 38 -16 59 4 18 0 43 -9 63 -9 19 -18 51 -21
72 -4 21 -10 46 -15 55 -5 9 -16 46 -25 82 -9 36 -24 76 -34 90 -9 14 -15 31
-14 38 12 56 -150 168 -192 133 -10 -8 -16 -9 -21 -1 -8 13 -65 12 -89 -1z"/>
</g>
</svg>
